Coordinates
version=1
nRows=12
nColumns=24
inDegrees=yes

Units are S.I. units (second, meters, Newtons, ...)
Angles are in degrees.

endheader
time	pelvis_tilt	pelvis_list	pelvis_rotation	pelvis_tx	pelvis_ty	pelvis_tz	hip_flexion_r	hip_adduction_r	hip_rotation_r	knee_angle_r	ankle_angle_r	subtalar_angle_r	mtp_angle_r	hip_flexion_l	hip_adduction_l	hip_rotation_l	knee_angle_l	ankle_angle_l	subtalar_angle_l	mtp_angle_l	lumbar_extension	lumbar_bending	lumbar_rotation
      4.03000000	     35.83066307	     11.39722373	      8.10554735	     -0.85095715	      0.65510106	     -0.26660521	    -16.67857109	     -6.79244612	    -25.02238357	      4.06386029	      9.39403703	     14.40866905	      0.00000000	    -48.62013694	      1.98680603	      4.96154618	    -20.75348700	     22.06402188	     18.73974545	      0.00000000	    -63.97392343	     -0.88782864	    -17.21264471
      4.03500000	     35.97538288	     11.36530189	      8.30678718	     -0.84491855	      0.65508324	     -0.26636079	    -16.84444023	     -6.69689063	    -24.67421902	      3.27011951	      9.13454498	     14.18322327	      0.00000000	    -48.97426604	      1.56912373	      5.12236782	    -21.35025615	     21.42915575	     19.03832018	      0.00000000	    -64.00065949	     -0.67490815	    -17.18351059
      4.04000000	     36.14411763	     11.29497015	      8.53900400	     -0.83882636	      0.65516116	     -0.26613289	    -17.04212750	     -6.54112083	    -24.41671725	      2.41654622	      8.75838895	     13.93459660	      0.00000000	    -49.31717676	      1.09503924	      5.26619492	    -21.99594144	     20.69960291	     19.29354264	      0.00000000	    -64.03316923	     -0.40244166	    -17.18253170
      4.04500000	     36.28551906	     11.21685782	      8.75583825	     -0.83275235	      0.65529007	     -0.26584391	    -17.18404799	     -6.38602686	    -24.26091530	      1.47958809	      8.35836687	     13.74109242	      0.00000000	    -49.56579825	      0.63591780	      5.36444740	    -22.74029797	     19.84915795	     19.51229002	      0.00000000	    -64.05376444	     -0.16390028	    -17.13591453
      4.05000000	     36.52413644	     11.09417861	      9.03476205	     -0.82659351	      0.65552953	     -0.26560766	    -17.46053353	     -6.13658257	    -23.99489714	      0.52506934	      7.91597694	     13.23649191	      0.00000000	    -49.89131610	      0.06956368	      5.46280848	    -23.51246790	     18.97138918	     19.75265413	      0.00000000	    -64.13385307	      0.19601805	    -17.15079202
      4.05500000	     36.71831279	     10.95349707	      9.26813357	     -0.82044629	      0.65582447	     -0.26534360	    -17.65985047	     -5.89784527	    -23.80454970	     -0.48239570	      7.42383642	     12.87209098	      0.00000000	    -50.10689178	     -0.45074037	      5.51527211	    -24.37082176	     17.93729251	     19.95223588	      0.00000000	    -64.17910334	      0.51504794	    -17.07874000
      4.06000000	     36.86569751	     10.81338759	      9.47627596	     -0.81431401	      0.65616807	     -0.26501856	    -17.79634013	     -5.67700423	    -23.70701428	     -1.52070295	      6.96827332	     12.63399990	      0.00000000	    -50.19293987	     -0.93436410	      5.50647996	    -25.34614298	     16.74863842	     20.10755244	      0.00000000	    -64.19266743	      0.78338512	    -16.96848533
      4.06500000	     37.03078001	     10.64355059	      9.70701043	     -0.80816908	      0.65658922	     -0.26470155	    -17.95554334	     -5.40860386	    -23.55196631	     -2.56933836	      6.49178487	     12.24126688	      0.00000000	    -50.23314552	     -1.45324587	      5.47940240	    -26.40463059	     15.46055806	     20.22761451	      0.00000000	    -64.21570928	      1.09770511	    -16.86557920
      4.07000000	     37.24782227	     10.40998517	      9.92885555	     -0.80205021	      0.65704619	     -0.26436642	    -18.15365341	     -5.05292430	    -23.20028889	     -3.62246934	      6.04302411	     11.50668275	      0.00000000	    -50.24961025	     -2.01676320	      5.37226846	    -27.57418888	     14.15199149	     20.29392768	      0.00000000	    -64.28158966	      1.47585169	    -16.77249215
      4.07500000	     37.40245836	     10.21156431	     10.12658335	     -0.79589549	      0.65757512	     -0.26399736	    -18.30785869	     -4.76240818	    -23.07983247	     -4.66533424	      5.70812474	     11.27627573	      0.00000000	    -50.13462502	     -2.51938665	      5.22252063	    -28.81692926	     12.58772062	     20.36592135	      0.00000000	    -64.29192291	      1.76412199	    -16.60032828
      4.08000000	     37.56699199	      9.93947795	     10.28278967	     -0.78984069	      0.65810878	     -0.26358294	    -18.42983348	     -4.39132521	    -22.70045933	     -5.71795362	      5.35258881	     10.59224544	      0.00000000	    -49.92785654	     -3.02414132	      4.99506737	    -30.20148938	     10.98755642	     20.27098655	      0.00000000	    -64.32603870	      2.09303621	    -16.42698399
      4.08500000	     37.68087308	      9.67475316	     10.40763526	     -0.78376843	      0.65867438	     -0.26313943	    -18.49989825	     -4.05571599	    -22.35159245	     -6.78275470	      5.12852613	     10.13171866	      0.00000000	    -49.60560873	     -3.48882538	      4.69029569	    -31.64456638	      9.22569574	     20.15435640	      0.00000000	    -64.31553143	      2.35668803	    -16.18862183
